<mxfile host="65bd71144e">
    <diagram id="jn3O06iTjcZAcnD1jI63" name="Page-1">
        <mxGraphModel dx="1198" dy="270" grid="1" gridSize="10" guides="1" tooltips="1" connect="1" arrows="1" fold="1" page="1" pageScale="1" pageWidth="850" pageHeight="1100" math="0" shadow="0">
            <root>
                <mxCell id="0"/>
                <mxCell id="1" parent="0"/>
                <mxCell id="4" style="edgeStyle=none;html=1;" edge="1" parent="1" source="2" target="3">
                    <mxGeometry relative="1" as="geometry"/>
                </mxCell>
                <mxCell id="2" value="inicio" style="ellipse;whiteSpace=wrap;html=1;" vertex="1" parent="1">
                    <mxGeometry x="260" y="100" width="120" height="80" as="geometry"/>
                </mxCell>
                <mxCell id="39" style="edgeStyle=none;html=1;entryX=0.5;entryY=0;entryDx=0;entryDy=0;" edge="1" parent="1" source="3" target="5">
                    <mxGeometry relative="1" as="geometry"/>
                </mxCell>
                <mxCell id="3" value="float a,b&lt;div&gt;char op&lt;/div&gt;" style="whiteSpace=wrap;html=1;" vertex="1" parent="1">
                    <mxGeometry x="260" y="200" width="120" height="60" as="geometry"/>
                </mxCell>
                <mxCell id="40" style="edgeStyle=none;html=1;entryX=0.5;entryY=0;entryDx=0;entryDy=0;" edge="1" parent="1" source="5" target="6">
                    <mxGeometry relative="1" as="geometry"/>
                </mxCell>
                <mxCell id="5" value="a,b&lt;div&gt;op&lt;/div&gt;" style="shape=parallelogram;perimeter=parallelogramPerimeter;whiteSpace=wrap;html=1;fixedSize=1;" vertex="1" parent="1">
                    <mxGeometry x="260" y="280" width="120" height="60" as="geometry"/>
                </mxCell>
                <mxCell id="7" style="edgeStyle=none;html=1;" edge="1" parent="1" source="6">
                    <mxGeometry relative="1" as="geometry">
                        <mxPoint x="540" y="420" as="targetPoint"/>
                    </mxGeometry>
                </mxCell>
                <mxCell id="16" style="edgeStyle=none;html=1;" edge="1" parent="1" source="6">
                    <mxGeometry relative="1" as="geometry">
                        <mxPoint x="160" y="420" as="targetPoint"/>
                    </mxGeometry>
                </mxCell>
                <mxCell id="6" value="op == &#39;+&#39;" style="rhombus;whiteSpace=wrap;" vertex="1" parent="1">
                    <mxGeometry x="245" y="360" width="150" height="120" as="geometry"/>
                </mxCell>
                <mxCell id="9" style="edgeStyle=none;html=1;" edge="1" parent="1" source="8">
                    <mxGeometry relative="1" as="geometry">
                        <mxPoint x="540" y="410" as="targetPoint"/>
                    </mxGeometry>
                </mxCell>
                <mxCell id="49" style="edgeStyle=none;html=1;" edge="1" parent="1" source="8">
                    <mxGeometry relative="1" as="geometry">
                        <mxPoint x="540" y="1110" as="targetPoint"/>
                    </mxGeometry>
                </mxCell>
                <mxCell id="8" value="resultado = a + b" style="rounded=0;whiteSpace=wrap;" vertex="1" parent="1">
                    <mxGeometry x="480" y="440" width="120" height="60" as="geometry"/>
                </mxCell>
                <mxCell id="17" style="edgeStyle=none;html=1;" edge="1" parent="1" source="10">
                    <mxGeometry relative="1" as="geometry">
                        <mxPoint x="170" y="420" as="targetPoint"/>
                    </mxGeometry>
                </mxCell>
                <mxCell id="24" style="edgeStyle=none;html=1;" edge="1" parent="1" source="10">
                    <mxGeometry relative="1" as="geometry">
                        <mxPoint x="320" y="540" as="targetPoint"/>
                    </mxGeometry>
                </mxCell>
                <mxCell id="27" style="edgeStyle=none;html=1;" edge="1" parent="1" source="10">
                    <mxGeometry relative="1" as="geometry">
                        <mxPoint x="40" y="540" as="targetPoint"/>
                    </mxGeometry>
                </mxCell>
                <mxCell id="10" value="op == &#39;-&#39;" style="rhombus;whiteSpace=wrap;" vertex="1" parent="1">
                    <mxGeometry x="95" y="480" width="150" height="120" as="geometry"/>
                </mxCell>
                <mxCell id="23" style="edgeStyle=none;html=1;exitX=0.5;exitY=1;exitDx=0;exitDy=0;" edge="1" parent="1" source="11">
                    <mxGeometry relative="1" as="geometry">
                        <mxPoint x="510" y="1100" as="targetPoint"/>
                        <Array as="points">
                            <mxPoint x="300" y="740"/>
                            <mxPoint x="510" y="740"/>
                        </Array>
                    </mxGeometry>
                </mxCell>
                <mxCell id="11" value="resultado = a - b" style="rounded=0;whiteSpace=wrap;" vertex="1" parent="1">
                    <mxGeometry x="245" y="580" width="120" height="60" as="geometry"/>
                </mxCell>
                <mxCell id="47" style="edgeStyle=none;html=1;" edge="1" parent="1" source="12">
                    <mxGeometry relative="1" as="geometry">
                        <mxPoint x="360" y="920" as="targetPoint"/>
                        <Array as="points">
                            <mxPoint x="70" y="920"/>
                            <mxPoint x="360" y="910"/>
                            <mxPoint x="360" y="1110"/>
                        </Array>
                    </mxGeometry>
                </mxCell>
                <mxCell id="12" value="resultado = a / b" style="rounded=0;whiteSpace=wrap;" vertex="1" parent="1">
                    <mxGeometry x="10" y="800" width="120" height="60" as="geometry"/>
                </mxCell>
                <mxCell id="48" style="edgeStyle=none;html=1;" edge="1" parent="1" source="13">
                    <mxGeometry relative="1" as="geometry">
                        <mxPoint x="440" y="1100" as="targetPoint"/>
                        <Array as="points">
                            <mxPoint x="200" y="840"/>
                            <mxPoint x="430" y="840"/>
                            <mxPoint x="440" y="1100"/>
                        </Array>
                    </mxGeometry>
                </mxCell>
                <mxCell id="13" value="resultado = a * b" style="rounded=0;whiteSpace=wrap;" vertex="1" parent="1">
                    <mxGeometry x="140" y="690" width="120" height="60" as="geometry"/>
                </mxCell>
                <mxCell id="26" style="edgeStyle=none;html=1;" edge="1" parent="1" source="14">
                    <mxGeometry relative="1" as="geometry">
                        <mxPoint x="80" y="780" as="targetPoint"/>
                    </mxGeometry>
                </mxCell>
                <mxCell id="14" value="op == &#39;/&#39;" style="rhombus;whiteSpace=wrap;" vertex="1" parent="1">
                    <mxGeometry x="-150" y="720" width="150" height="120" as="geometry"/>
                </mxCell>
                <mxCell id="38" style="edgeStyle=none;html=1;" edge="1" parent="1" source="15">
                    <mxGeometry relative="1" as="geometry">
                        <mxPoint x="-80" y="710" as="targetPoint"/>
                        <Array as="points">
                            <mxPoint x="-100" y="670"/>
                        </Array>
                    </mxGeometry>
                </mxCell>
                <mxCell id="15" value="op == &#39;*&#39;" style="rhombus;whiteSpace=wrap;" vertex="1" parent="1">
                    <mxGeometry x="-30" y="610" width="150" height="120" as="geometry"/>
                </mxCell>
                <mxCell id="41" style="edgeStyle=none;html=1;entryX=0.35;entryY=-0.037;entryDx=0;entryDy=0;entryPerimeter=0;" edge="1" parent="1" source="18" target="44">
                    <mxGeometry relative="1" as="geometry">
                        <mxPoint x="-390" y="920" as="targetPoint"/>
                        <Array as="points">
                            <mxPoint x="-380" y="920"/>
                        </Array>
                    </mxGeometry>
                </mxCell>
                <mxCell id="18" value="op == &#39;%&#39;" style="rhombus;whiteSpace=wrap;" vertex="1" parent="1">
                    <mxGeometry x="-260" y="860" width="150" height="120" as="geometry"/>
                </mxCell>
                <mxCell id="46" style="edgeStyle=none;html=1;" edge="1" parent="1" source="19">
                    <mxGeometry relative="1" as="geometry">
                        <mxPoint x="140" y="1110" as="targetPoint"/>
                    </mxGeometry>
                </mxCell>
                <mxCell id="19" value="resultado = a % b" style="rounded=0;whiteSpace=wrap;" vertex="1" parent="1">
                    <mxGeometry x="90" y="1010" width="120" height="60" as="geometry"/>
                </mxCell>
                <mxCell id="21" style="edgeStyle=none;html=1;" edge="1" parent="1" source="20">
                    <mxGeometry relative="1" as="geometry">
                        <mxPoint x="170" y="980" as="targetPoint"/>
                    </mxGeometry>
                </mxCell>
                <mxCell id="20" value="b != 0:" style="rhombus;whiteSpace=wrap;" vertex="1" parent="1">
                    <mxGeometry x="-90" y="920" width="150" height="120" as="geometry"/>
                </mxCell>
                <mxCell id="22" style="edgeStyle=none;html=1;entryX=0.553;entryY=0.008;entryDx=0;entryDy=0;entryPerimeter=0;" edge="1" parent="1" source="18" target="20">
                    <mxGeometry relative="1" as="geometry"/>
                </mxCell>
                <mxCell id="32" value="" style="endArrow=classic;html=1;entryX=0.5;entryY=0;entryDx=0;entryDy=0;" edge="1" parent="1" target="15">
                    <mxGeometry width="50" height="50" relative="1" as="geometry">
                        <mxPoint x="40" y="540" as="sourcePoint"/>
                        <mxPoint x="90" y="490" as="targetPoint"/>
                    </mxGeometry>
                </mxCell>
                <mxCell id="33" value="" style="endArrow=classic;html=1;entryX=0.5;entryY=0;entryDx=0;entryDy=0;" edge="1" parent="1" target="11">
                    <mxGeometry width="50" height="50" relative="1" as="geometry">
                        <mxPoint x="310" y="540" as="sourcePoint"/>
                        <mxPoint x="360" y="490" as="targetPoint"/>
                    </mxGeometry>
                </mxCell>
                <mxCell id="34" value="" style="endArrow=none;html=1;" edge="1" parent="1">
                    <mxGeometry width="50" height="50" relative="1" as="geometry">
                        <mxPoint x="120" y="670" as="sourcePoint"/>
                        <mxPoint x="210" y="660" as="targetPoint"/>
                    </mxGeometry>
                </mxCell>
                <mxCell id="35" value="" style="endArrow=classic;html=1;entryX=0.5;entryY=0;entryDx=0;entryDy=0;" edge="1" parent="1" target="13">
                    <mxGeometry width="50" height="50" relative="1" as="geometry">
                        <mxPoint x="210" y="660" as="sourcePoint"/>
                        <mxPoint x="260" y="610" as="targetPoint"/>
                    </mxGeometry>
                </mxCell>
                <mxCell id="36" value="" style="endArrow=classic;html=1;entryX=0.5;entryY=0;entryDx=0;entryDy=0;" edge="1" parent="1" target="12">
                    <mxGeometry width="50" height="50" relative="1" as="geometry">
                        <mxPoint x="70" y="780" as="sourcePoint"/>
                        <mxPoint x="120" y="730" as="targetPoint"/>
                    </mxGeometry>
                </mxCell>
                <mxCell id="37" value="" style="endArrow=none;html=1;exitX=0.5;exitY=0;exitDx=0;exitDy=0;" edge="1" parent="1" source="18">
                    <mxGeometry width="50" height="50" relative="1" as="geometry">
                        <mxPoint x="-200" y="780" as="sourcePoint"/>
                        <mxPoint x="-150" y="780" as="targetPoint"/>
                        <Array as="points">
                            <mxPoint x="-210" y="780"/>
                        </Array>
                    </mxGeometry>
                </mxCell>
                <mxCell id="42" value="" style="endArrow=classic;html=1;entryX=0.575;entryY=-0.017;entryDx=0;entryDy=0;entryPerimeter=0;" edge="1" parent="1" target="19">
                    <mxGeometry width="50" height="50" relative="1" as="geometry">
                        <mxPoint x="160" y="980" as="sourcePoint"/>
                        <mxPoint x="210" y="930" as="targetPoint"/>
                    </mxGeometry>
                </mxCell>
                <mxCell id="43" value="si" style="text;html=1;align=center;verticalAlign=middle;resizable=0;points=[];autosize=1;strokeColor=none;fillColor=none;" vertex="1" parent="1">
                    <mxGeometry x="-155" y="848" width="30" height="30" as="geometry"/>
                </mxCell>
                <mxCell id="45" style="edgeStyle=none;html=1;" edge="1" parent="1" source="44">
                    <mxGeometry relative="1" as="geometry">
                        <mxPoint x="530" y="1110" as="targetPoint"/>
                        <Array as="points">
                            <mxPoint x="-370" y="1110"/>
                        </Array>
                    </mxGeometry>
                </mxCell>
                <mxCell id="44" value="operador no valido" style="shape=document;whiteSpace=wrap;html=1;boundedLbl=1;" vertex="1" parent="1">
                    <mxGeometry x="-430" y="940" width="120" height="80" as="geometry"/>
                </mxCell>
                <mxCell id="50" value="FIN" style="ellipse;whiteSpace=wrap;html=1;" vertex="1" parent="1">
                    <mxGeometry x="245" y="1150" width="120" height="80" as="geometry"/>
                </mxCell>
                <mxCell id="51" value="" style="endArrow=classic;html=1;entryX=0.462;entryY=-0.007;entryDx=0;entryDy=0;entryPerimeter=0;" edge="1" parent="1" target="50">
                    <mxGeometry width="50" height="50" relative="1" as="geometry">
                        <mxPoint x="300" y="1110" as="sourcePoint"/>
                        <mxPoint x="350" y="1060" as="targetPoint"/>
                    </mxGeometry>
                </mxCell>
            </root>
        </mxGraphModel>
    </diagram>
</mxfile>